<svg width="33" height="24" viewBox="0 0 33 24" fill="none" xmlns="http://www.w3.org/2000/svg">
<path d="M8.06756 23.512C6.4969 23.512 5.15423 23.132 4.03956 22.372C2.97556 21.5613 2.1649 20.4973 1.60756 19.18C1.05023 17.8627 0.771563 16.444 0.771563 14.924C0.771563 12.796 1.20223 10.7947 2.06356 8.92C2.9249 6.99466 4.0649 5.272 5.48356 3.752C6.9529 2.232 8.6249 1.04133 10.4996 0.179996L14.9836 3.752C13.6156 4.25867 12.3489 4.94266 11.1836 5.804C10.0689 6.61466 9.10623 7.52666 8.29556 8.54C7.53556 9.55333 6.9529 10.592 6.54756 11.656L6.92756 11.884C7.1809 11.6813 7.4849 11.5293 7.83956 11.428C8.19423 11.3267 8.7009 11.276 9.35956 11.276C10.1702 11.276 10.9809 11.504 11.7916 11.96C12.6022 12.3653 13.2862 12.9987 13.8436 13.86C14.4009 14.6707 14.6796 15.7093 14.6796 16.976C14.6796 18.344 14.3756 19.5093 13.7676 20.472C13.1596 21.4347 12.3489 22.1947 11.3356 22.752C10.3729 23.2587 9.28356 23.512 8.06756 23.512ZM25.0916 23.512C23.5209 23.512 22.1782 23.132 21.0636 22.372C19.9996 21.5613 19.1889 20.4973 18.6316 19.18C18.0742 17.8627 17.7956 16.444 17.7956 14.924C17.7956 12.796 18.2262 10.7947 19.0876 8.92C19.9489 6.99466 21.0889 5.272 22.5076 3.752C23.9769 2.232 25.6489 1.04133 27.5236 0.179996L32.0836 3.752C30.7156 4.25867 29.4489 4.94266 28.2836 5.804C27.1182 6.61466 26.1302 7.52666 25.3196 8.54C24.5596 9.55333 23.9769 10.592 23.5716 11.656L23.9516 11.884C24.2049 11.6813 24.5089 11.5293 24.8636 11.428C25.2182 11.3267 25.7249 11.276 26.3836 11.276C27.1942 11.276 28.0049 11.504 28.8156 11.96C29.6262 12.3653 30.3102 12.9987 30.8676 13.86C31.4249 14.6707 31.7036 15.7093 31.7036 16.976C31.7036 18.344 31.3996 19.5093 30.7916 20.472C30.2342 21.4347 29.4489 22.1947 28.4356 22.752C27.4222 23.2587 26.3076 23.512 25.0916 23.512Z" fill="#DA9C65"/>
</svg>
